<mxfile host="app.diagrams.net" modified="2024-03-01T15:44:59.255Z" agent="Mozilla/5.0 (Windows NT 10.0; Win64; x64) AppleWebKit/537.36 (KHTML, like Gecko) Chrome/121.0.0.0 Safari/537.36 OPR/107.0.0.0" version="23.1.8" etag="AOA2Yp1cbdAdakpy3NX3" type="github">
  <diagram name="Page-1" id="mxbLFwiXBf07JmzlAKGV">
    <mxGraphModel>
      <root>
        <mxCell id="0" />
        <mxCell id="1" parent="0" />
      </root>
    </mxGraphModel>
  </diagram>
</mxfile>
